<svg width="64" height="64" viewBox="0 0 64 64" fill="none" xmlns="http://www.w3.org/2000/svg">
    <rect width="64" height="64" fill="#032357"/>
    <path d="M36.9626 12.4626C39.0509 12.9609 40.9606 13.7959 42.7069 14.8486L40.5975 17.0804L51.2147 19.5995L48.0883 9.14558L46.1171 11.2364C43.7269 9.65859 41.0323 8.45355 38.0818 7.75351C24.5009 4.53123 10.8811 12.928 7.65882 26.5089C6.32147 32.1455 7.00979 37.7793 9.21564 42.6853L13.6356 40.7017C11.8509 36.7363 11.2923 32.184 12.3646 27.627C14.9885 16.6512 25.9799 9.87461 36.9626 12.4626ZM55.2789 22.0062L50.8587 23.9912C52.6431 27.9549 53.2026 32.5046 52.1284 37.0628C49.5046 48.0383 38.5135 54.814 27.5299 52.227C25.5848 51.763 23.7985 51.005 22.1498 50.0547L24.1345 47.9549L13.5176 45.4359L16.6434 55.8923L18.7329 53.6749C21.0358 55.1444 23.6068 56.2693 26.4125 56.9365C39.9962 60.1567 53.6141 51.7595 56.8393 38.1793C58.1737 32.542 57.4836 26.9093 55.2789 22.0062Z" fill="#FF7B00"/>
    <path d="M31.8265 33.9048C30.7117 33.9048 29.808 33.0011 29.808 31.8863V17.5257L33.845 17.5257V31.8863C33.845 33.0011 32.9413 33.9048 31.8265 33.9048Z" fill="#FF7B00"/>
    <path d="M33.3711 30.7897C32.7176 29.8867 31.4556 29.6844 30.5526 30.338L23.3013 35.5859L25.6681 38.8562L32.9194 33.6083C33.8224 32.9547 34.0247 31.6928 33.3711 30.7897Z" fill="#FF7B00"/>
</svg>