
<svg fill="none" xmlns="http://www.w3.org/2000/svg" viewBox="0 0 48 48">
    <path fill="#fff" d="M0 0h48v48H0z"/>
    <path d="M29 10c-.67 0-1.34.05-2 .14.04.02.08.06.13.08.37.22.74.45 1.09.7 0 0 .02.01.03.02.36.25.7.53 1.04.81.1.09.2.18.3.26.24.21.48.44.71.67l.28.28c.3.32.6.65.88 1 2.19 2.7 3.42 5.96 3.55 9.44v.61c.01 3.31-2.68 6-5.99 6s-6-2.69-6-6c0-2.21-1.79-4-4-4s-4 1.79-4 4v.52c.12 3.06 1.19 5.91 3.11 8.27 1.63 2.02 3.78 3.55 6.22 4.41 1.5.53 3.06.8 4.67.8 7.56 0 13.71-5.92 13.99-13.47v-1.05c-.28-7.57-6.43-13.48-13.99-13.48L29 10Z" fill="#4669A3"/>
    <path d="M19.77 37.07c-.36-.25-.7-.53-1.04-.81-.1-.08-.2-.17-.29-.26-.24-.22-.48-.44-.71-.67l-.28-.28c-.3-.32-.6-.65-.88-1-2.19-2.69-3.41-5.96-3.55-9.44-.01-.19-.01-.4-.01-.61 0-3.31 2.69-6 6-6s6 2.69 6 6c0 2.21 1.79 4 4 4s4-1.79 4-4v-.57c-.13-3-1.2-5.86-3.12-8.22-1.63-2.02-3.78-3.55-6.22-4.41-1.49-.53-3.06-.8-4.67-.8-7.56 0-13.71 5.92-14 13.47v1.05C5.28 32.09 11.43 38 18.99 38c.67 0 1.34-.05 2-.14-.04-.02-.08-.06-.13-.08-.38-.22-.75-.46-1.11-.71h.02Z" fill="#01173B"/>
</svg>